<mxfile host="app.diagrams.net" agent="Mozilla/5.0 (Windows NT 10.0; Win64; x64) AppleWebKit/537.36 (KHTML, like Gecko) Chrome/141.0.0.0 Safari/537.36 Edg/141.0.0.0" version="28.2.5">
  <diagram name="PÃ¡gina-1" id="ybxMegu20QLMTT6GTvBc">
    <mxGraphModel dx="1418" dy="786" grid="1" gridSize="10" guides="1" tooltips="1" connect="1" arrows="1" fold="1" page="1" pageScale="1" pageWidth="827" pageHeight="1169" math="0" shadow="0">
      <root>
        <mxCell id="0" />
        <mxCell id="1" parent="0" />
        <mxCell id="Gb_D7QVCogXqmU0bzWKU-122" value="" style="edgeStyle=orthogonalEdgeStyle;rounded=0;orthogonalLoop=1;jettySize=auto;html=1;" edge="1" parent="1" source="Gb_D7QVCogXqmU0bzWKU-123" target="Gb_D7QVCogXqmU0bzWKU-127">
          <mxGeometry relative="1" as="geometry" />
        </mxCell>
        <mxCell id="Gb_D7QVCogXqmU0bzWKU-123" value="i" style="ellipse;whiteSpace=wrap;html=1;" vertex="1" parent="1">
          <mxGeometry x="754" y="1000" width="120" height="80" as="geometry" />
        </mxCell>
        <mxCell id="Gb_D7QVCogXqmU0bzWKU-124" value="" style="edgeStyle=orthogonalEdgeStyle;rounded=0;orthogonalLoop=1;jettySize=auto;html=1;" edge="1" parent="1" source="Gb_D7QVCogXqmU0bzWKU-125" target="Gb_D7QVCogXqmU0bzWKU-134">
          <mxGeometry relative="1" as="geometry" />
        </mxCell>
        <mxCell id="Gb_D7QVCogXqmU0bzWKU-125" value="ler num" style="shape=parallelogram;perimeter=parallelogramPerimeter;whiteSpace=wrap;html=1;fixedSize=1;" vertex="1" parent="1">
          <mxGeometry x="610" y="1200" width="120" height="60" as="geometry" />
        </mxCell>
        <mxCell id="Gb_D7QVCogXqmU0bzWKU-126" value="" style="edgeStyle=orthogonalEdgeStyle;rounded=0;orthogonalLoop=1;jettySize=auto;html=1;" edge="1" parent="1" source="Gb_D7QVCogXqmU0bzWKU-127" target="Gb_D7QVCogXqmU0bzWKU-125">
          <mxGeometry relative="1" as="geometry" />
        </mxCell>
        <mxCell id="Gb_D7QVCogXqmU0bzWKU-127" value="contador = 0&lt;div&gt;i = 1&lt;/div&gt;" style="rounded=0;whiteSpace=wrap;html=1;" vertex="1" parent="1">
          <mxGeometry x="754" y="1120" width="120" height="60" as="geometry" />
        </mxCell>
        <mxCell id="Gb_D7QVCogXqmU0bzWKU-128" value="" style="edgeStyle=orthogonalEdgeStyle;rounded=0;orthogonalLoop=1;jettySize=auto;html=1;" edge="1" parent="1" source="Gb_D7QVCogXqmU0bzWKU-129" target="Gb_D7QVCogXqmU0bzWKU-141">
          <mxGeometry relative="1" as="geometry" />
        </mxCell>
        <mxCell id="Gb_D7QVCogXqmU0bzWKU-129" value="num MOD i == 0" style="rhombus;whiteSpace=wrap;html=1;" vertex="1" parent="1">
          <mxGeometry x="500" y="1470" width="184" height="120" as="geometry" />
        </mxCell>
        <mxCell id="Gb_D7QVCogXqmU0bzWKU-130" value="" style="edgeStyle=orthogonalEdgeStyle;rounded=0;orthogonalLoop=1;jettySize=auto;html=1;" edge="1" parent="1" source="Gb_D7QVCogXqmU0bzWKU-134" target="Gb_D7QVCogXqmU0bzWKU-136">
          <mxGeometry relative="1" as="geometry" />
        </mxCell>
        <mxCell id="Gb_D7QVCogXqmU0bzWKU-131" value="nao" style="edgeLabel;html=1;align=center;verticalAlign=middle;resizable=0;points=[];" vertex="1" connectable="0" parent="Gb_D7QVCogXqmU0bzWKU-130">
          <mxGeometry x="-0.4937" relative="1" as="geometry">
            <mxPoint as="offset" />
          </mxGeometry>
        </mxCell>
        <mxCell id="Gb_D7QVCogXqmU0bzWKU-132" style="edgeStyle=orthogonalEdgeStyle;rounded=0;orthogonalLoop=1;jettySize=auto;html=1;" edge="1" parent="1" source="Gb_D7QVCogXqmU0bzWKU-134" target="Gb_D7QVCogXqmU0bzWKU-129">
          <mxGeometry relative="1" as="geometry" />
        </mxCell>
        <mxCell id="Gb_D7QVCogXqmU0bzWKU-133" value="sim" style="edgeLabel;html=1;align=center;verticalAlign=middle;resizable=0;points=[];" vertex="1" connectable="0" parent="Gb_D7QVCogXqmU0bzWKU-132">
          <mxGeometry x="0.1733" relative="1" as="geometry">
            <mxPoint as="offset" />
          </mxGeometry>
        </mxCell>
        <mxCell id="Gb_D7QVCogXqmU0bzWKU-134" value="i &amp;lt;= num" style="rhombus;whiteSpace=wrap;html=1;" vertex="1" parent="1">
          <mxGeometry x="580" y="1330" width="184" height="120" as="geometry" />
        </mxCell>
        <mxCell id="Gb_D7QVCogXqmU0bzWKU-135" value="" style="edgeStyle=orthogonalEdgeStyle;rounded=0;orthogonalLoop=1;jettySize=auto;html=1;" edge="1" parent="1" source="Gb_D7QVCogXqmU0bzWKU-136" target="Gb_D7QVCogXqmU0bzWKU-138">
          <mxGeometry relative="1" as="geometry" />
        </mxCell>
        <mxCell id="Gb_D7QVCogXqmU0bzWKU-136" value="contador == 2" style="rhombus;whiteSpace=wrap;html=1;" vertex="1" parent="1">
          <mxGeometry x="884" y="1350" width="194" height="80" as="geometry" />
        </mxCell>
        <mxCell id="Gb_D7QVCogXqmU0bzWKU-137" style="edgeStyle=orthogonalEdgeStyle;rounded=0;orthogonalLoop=1;jettySize=auto;html=1;entryX=1;entryY=0.5;entryDx=0;entryDy=0;" edge="1" parent="1" source="Gb_D7QVCogXqmU0bzWKU-138" target="Gb_D7QVCogXqmU0bzWKU-142">
          <mxGeometry relative="1" as="geometry">
            <Array as="points">
              <mxPoint x="1230" y="1660" />
            </Array>
          </mxGeometry>
        </mxCell>
        <mxCell id="Gb_D7QVCogXqmU0bzWKU-138" value="Escreva &quot;O numero e primo&quot;" style="shape=parallelogram;perimeter=parallelogramPerimeter;whiteSpace=wrap;html=1;fixedSize=1;" vertex="1" parent="1">
          <mxGeometry x="1170" y="1360" width="217" height="60" as="geometry" />
        </mxCell>
        <mxCell id="Gb_D7QVCogXqmU0bzWKU-139" value="sim" style="text;html=1;align=center;verticalAlign=middle;resizable=0;points=[];autosize=1;strokeColor=none;fillColor=none;" vertex="1" parent="1">
          <mxGeometry x="1090" y="1368" width="40" height="30" as="geometry" />
        </mxCell>
        <mxCell id="Gb_D7QVCogXqmU0bzWKU-140" style="edgeStyle=orthogonalEdgeStyle;rounded=0;orthogonalLoop=1;jettySize=auto;html=1;entryX=0;entryY=0.5;entryDx=0;entryDy=0;" edge="1" parent="1" source="Gb_D7QVCogXqmU0bzWKU-141" target="Gb_D7QVCogXqmU0bzWKU-134">
          <mxGeometry relative="1" as="geometry">
            <Array as="points">
              <mxPoint x="480" y="1680" />
              <mxPoint x="480" y="1550" />
              <mxPoint x="450" y="1550" />
              <mxPoint x="450" y="1390" />
            </Array>
          </mxGeometry>
        </mxCell>
        <mxCell id="Gb_D7QVCogXqmU0bzWKU-141" value="contador++&lt;div&gt;i++&lt;/div&gt;" style="rounded=0;whiteSpace=wrap;html=1;" vertex="1" parent="1">
          <mxGeometry x="532" y="1650" width="120" height="60" as="geometry" />
        </mxCell>
        <mxCell id="Gb_D7QVCogXqmU0bzWKU-142" value="f" style="ellipse;whiteSpace=wrap;html=1;" vertex="1" parent="1">
          <mxGeometry x="840" y="1620" width="120" height="80" as="geometry" />
        </mxCell>
        <mxCell id="Gb_D7QVCogXqmU0bzWKU-143" style="edgeStyle=orthogonalEdgeStyle;rounded=0;orthogonalLoop=1;jettySize=auto;html=1;entryX=0.558;entryY=0.025;entryDx=0;entryDy=0;entryPerimeter=0;" edge="1" parent="1" source="Gb_D7QVCogXqmU0bzWKU-136" target="Gb_D7QVCogXqmU0bzWKU-142">
          <mxGeometry relative="1" as="geometry">
            <Array as="points">
              <mxPoint x="907" y="1490" />
              <mxPoint x="907" y="1490" />
            </Array>
          </mxGeometry>
        </mxCell>
      </root>
    </mxGraphModel>
  </diagram>
</mxfile>
